<?xml version="1.0" encoding="UTF-8" standalone="no"?>
<!DOCTYPE svg PUBLIC "-//W3C//DTD SVG 1.1//EN" "http://www.w3.org/Graphics/SVG/1.1/DTD/svg11.dtd">
<svg width="100%" height="100%" viewBox="0 0 2265 600" version="1.1" xmlns="http://www.w3.org/2000/svg" xmlns:xlink="http://www.w3.org/1999/xlink" xml:space="preserve" xmlns:serif="http://www.serif.com/" style="fill-rule:evenodd;clip-rule:evenodd;stroke-linejoin:round;stroke-miterlimit:2;">
    <g id="Wordmark">
    </g>
    <g id="Monogram-Circle" serif:id="Monogram Circle">
    </g>
    <rect id="Primary-Dark" serif:id="Primary Dark" x="0" y="0" width="2264.8" height="600" style="fill:#35312e;"/>
    <g id="Wordmark1" serif:id="Wordmark">
        <g id="Wordmark---Light" serif:id="Wordmark - Light">
            <path d="M600,448.158L600,150.003L647.025,150.003L647.025,281.471L785.097,281.471L785.097,150.003L832.121,150.003L832.121,448.158L785.097,448.158L785.097,323.493L647.025,323.493L647.025,448.158L600,448.158Z" style="fill:#f7f5f2;fill-rule:nonzero;"/>
            <path d="M946.181,452.961C931.506,452.961 918.633,450.393 907.561,445.257C896.488,440.121 887.884,432.917 881.747,423.645C875.611,414.374 872.542,403.535 872.542,391.128C872.542,379.389 875.144,368.85 880.346,359.512C885.549,350.174 893.587,342.303 904.459,335.9C915.331,329.496 929.038,324.961 945.58,322.292L1021.02,309.886L1021.02,345.505L954.585,356.911C942.579,359.045 933.741,362.88 928.071,368.417C922.402,373.953 919.567,380.99 919.567,389.528C919.567,397.665 922.735,404.335 929.072,409.538C935.408,414.741 943.446,417.342 953.184,417.342C965.458,417.342 976.196,414.707 985.401,409.438C994.606,404.169 1001.78,397.032 1006.91,388.027C1012.05,379.022 1014.62,369.05 1014.62,358.111L1014.62,302.482C1014.62,291.943 1010.65,283.272 1002.71,276.469C994.773,269.665 984.267,266.263 971.194,266.263C959.321,266.263 948.882,269.365 939.877,275.568C930.873,281.771 924.236,289.876 919.967,299.881L882.347,281.071C886.483,270.399 893.053,260.994 902.058,252.856C911.062,244.719 921.635,238.349 933.774,233.746C945.914,229.144 958.854,226.843 972.595,226.843C989.67,226.843 1004.78,230.044 1017.92,236.448C1031.06,242.851 1041.3,251.722 1048.63,263.062C1055.97,274.401 1059.64,287.541 1059.64,302.482L1059.64,448.158L1016.62,448.158L1016.62,409.138L1025.62,410.138C1020.55,418.943 1014.12,426.547 1006.31,432.95C998.508,439.354 989.57,444.29 979.498,447.758C969.426,451.226 958.32,452.961 946.181,452.961Z" style="fill:#f7f5f2;fill-rule:nonzero;"/>
            <path d="M1104.46,448.158L1104.46,231.645L1147.49,231.645L1147.49,275.468L1143.48,269.065C1148.42,254.791 1156.22,244.552 1166.9,238.349C1177.57,232.145 1190.38,229.044 1205.32,229.044L1218.52,229.044L1218.52,270.065L1199.71,270.065C1184.64,270.065 1172.5,274.701 1163.29,283.972C1154.09,293.244 1149.49,306.351 1149.49,323.293L1149.49,448.158L1104.46,448.158Z" style="fill:#f7f5f2;fill-rule:nonzero;"/>
            <path d="M1241.34,528.2L1241.34,231.645L1284.36,231.645L1284.36,276.469L1279.36,266.263C1287.23,253.99 1297.83,244.352 1311.17,237.348C1324.51,230.344 1339.79,226.843 1357,226.843C1377.54,226.843 1395.98,231.812 1412.32,241.75C1428.67,251.689 1441.61,265.163 1451.14,282.172C1460.68,299.18 1465.45,318.424 1465.45,339.902C1465.45,361.113 1460.72,380.289 1451.25,397.432C1441.77,414.574 1428.87,428.114 1412.52,438.053C1396.18,447.991 1377.61,452.961 1356.8,452.961C1340.12,452.961 1324.91,449.492 1311.17,442.555C1297.43,435.618 1286.76,425.613 1279.15,412.54L1286.36,404.135L1286.36,528.2L1241.34,528.2ZM1352.39,410.939C1365.2,410.939 1376.57,407.87 1386.51,401.734C1396.45,395.597 1404.25,387.16 1409.92,376.421C1415.59,365.682 1418.43,353.509 1418.43,339.902C1418.43,326.161 1415.59,313.988 1409.92,303.383C1404.25,292.777 1396.45,284.373 1386.51,278.169C1376.57,271.966 1365.2,268.865 1352.39,268.865C1339.85,268.865 1328.58,271.933 1318.58,278.069C1308.57,284.206 1300.7,292.644 1294.96,303.383C1289.23,314.122 1286.36,326.295 1286.36,339.902C1286.36,353.509 1289.23,365.682 1294.96,376.421C1300.7,387.16 1308.57,395.597 1318.58,401.734C1328.58,407.87 1339.85,410.939 1352.39,410.939Z" style="fill:#f7f5f2;fill-rule:nonzero;"/>
            <path d="M1505.87,448.158L1505.87,150.003L1702.18,150.003L1702.18,192.024L1552.9,192.024L1552.9,277.669L1694.17,277.669L1694.17,319.691L1552.9,319.691L1552.9,406.136L1702.18,406.136L1702.18,448.158L1505.87,448.158Z" style="fill:#f7f5f2;fill-rule:nonzero;"/>
            <rect x="1733.79" y="145.2" width="45.024" height="302.958" style="fill:#f7f5f2;fill-rule:nonzero;"/>
            <rect x="1823.64" y="145.2" width="45.024" height="302.958" style="fill:#f7f5f2;fill-rule:nonzero;"/>
            <path d="M2014.94,452.961C1993.33,452.961 1974.22,447.958 1957.61,437.953C1941,427.948 1928.03,414.341 1918.69,397.132C1909.35,379.923 1904.68,360.646 1904.68,339.301C1904.68,317.557 1909.38,298.247 1918.79,281.371C1928.19,264.496 1940.93,251.189 1957.01,241.45C1973.08,231.712 1991.19,226.843 2011.34,226.843C2027.75,226.843 2042.32,229.644 2055.06,235.247C2067.8,240.85 2078.61,248.554 2087.48,258.359C2096.35,268.164 2103.12,279.337 2107.79,291.877C2112.46,304.416 2114.79,317.69 2114.79,331.697C2114.79,335.166 2114.62,338.768 2114.29,342.503C2113.96,346.238 2113.39,349.707 2112.59,352.908L1940.1,352.908L1940.1,316.89L2086.98,316.89L2065.57,333.298C2068.1,320.225 2067.2,308.552 2062.86,298.28C2058.53,288.008 2051.86,279.87 2042.85,273.867C2033.85,267.864 2023.34,264.862 2011.34,264.862C1999.46,264.862 1988.83,267.864 1979.42,273.867C1970.02,279.87 1962.78,288.441 1957.71,299.581C1952.64,310.72 1950.64,324.093 1951.71,339.702C1950.51,354.376 1952.61,367.216 1958.01,378.222C1963.41,389.227 1971.15,397.765 1981.22,403.835C1991.29,409.905 2002.67,412.94 2015.34,412.94C2028.55,412.94 2039.72,410.005 2048.86,404.135C2057.99,398.265 2065.3,390.662 2070.77,381.323L2107.59,399.533C2103.32,409.671 2096.68,418.776 2087.68,426.847C2078.67,434.918 2068,441.288 2055.66,445.957C2043.32,450.626 2029.75,452.961 2014.94,452.961Z" style="fill:#f7f5f2;fill-rule:nonzero;"/>
        </g>
    </g>
    <g id="Monogram-Circle1" serif:id="Monogram Circle">
        <g id="Monogram---Full-Color-Dark" serif:id="Monogram - Full Color Dark">
            <circle id="Circle" cx="300" cy="300" r="150" style="fill:#f7f5f2;"/>
            <g id="HE">
                <rect x="330.032" y="345" width="52.532" height="30" style="fill:#9280a0;"/>
                <rect x="330.032" y="285" width="52.532" height="30" style="fill:#9280a0;"/>
                <rect x="330.032" y="225" width="52.532" height="30" style="fill:#9280a0;"/>
                <rect x="300.032" y="225" width="29.976" height="150" style="fill:#35312e;"/>
                <rect x="247.532" y="285" width="52.5" height="30" style="fill:#b89a8f;"/>
                <rect x="217.532" y="225" width="29.976" height="150" style="fill:#35312e;"/>
            </g>
        </g>
    </g>
</svg>
