<?xml version="1.0" encoding="UTF-8" standalone="no"?>
<!DOCTYPE svg PUBLIC "-//W3C//DTD SVG 1.1//EN" "http://www.w3.org/Graphics/SVG/1.1/DTD/svg11.dtd">
<svg width="100%" height="100%" viewBox="0 0 1815 600" version="1.1" xmlns="http://www.w3.org/2000/svg" xmlns:xlink="http://www.w3.org/1999/xlink" xml:space="preserve" xmlns:serif="http://www.serif.com/" style="fill-rule:evenodd;clip-rule:evenodd;stroke-linejoin:round;stroke-miterlimit:2;">
    <g id="Wordmark">
    </g>
    <g id="Monogram-Circle" serif:id="Monogram Circle">
    </g>
    <rect id="Name-Light" serif:id="Name Light" x="-0" y="0" width="1814.8" height="600" style="fill:#f7f5f2;"/>
    <g id="Wordmark1" serif:id="Wordmark">
        <g id="Wordmark---Dark" serif:id="Wordmark - Dark">
            <path d="M150,448.158L150,150.003L197.025,150.003L197.025,281.471L335.097,281.471L335.097,150.003L382.121,150.003L382.121,448.158L335.097,448.158L335.097,323.493L197.025,323.493L197.025,448.158L150,448.158Z" style="fill:#35312e;fill-rule:nonzero;"/>
            <path d="M496.181,452.961C481.506,452.961 468.633,450.393 457.561,445.257C446.488,440.121 437.884,432.917 431.747,423.645C425.611,414.374 422.542,403.535 422.542,391.128C422.542,379.389 425.144,368.85 430.346,359.512C435.549,350.174 443.587,342.303 454.459,335.9C465.331,329.496 479.038,324.961 495.58,322.292L571.02,309.886L571.02,345.505L504.585,356.911C492.579,359.045 483.741,362.88 478.071,368.417C472.402,373.953 469.567,380.99 469.567,389.528C469.567,397.665 472.735,404.335 479.072,409.538C485.408,414.741 493.446,417.342 503.184,417.342C515.458,417.342 526.196,414.707 535.401,409.438C544.606,404.169 551.776,397.032 556.912,388.027C562.049,379.022 564.617,369.05 564.617,358.111L564.617,302.482C564.617,291.943 560.648,283.272 552.71,276.469C544.773,269.665 534.267,266.263 521.194,266.263C509.321,266.263 498.882,269.365 489.877,275.568C480.873,281.771 474.236,289.876 469.967,299.881L432.347,281.071C436.483,270.399 443.053,260.994 452.058,252.856C461.062,244.719 471.635,238.349 483.774,233.746C495.914,229.144 508.854,226.843 522.595,226.843C539.67,226.843 554.778,230.044 567.918,236.448C581.058,242.851 591.297,251.722 598.634,263.062C605.971,274.401 609.64,287.541 609.64,302.482L609.64,448.158L566.618,448.158L566.618,409.138L575.622,410.138C570.553,418.943 564.116,426.547 556.312,432.95C548.508,439.354 539.57,444.29 529.498,447.758C519.426,451.226 508.32,452.961 496.181,452.961Z" style="fill:#35312e;fill-rule:nonzero;"/>
            <path d="M654.463,448.158L654.463,231.645L697.486,231.645L697.486,275.468L693.484,269.065C698.42,254.791 706.224,244.552 716.896,238.349C727.568,232.145 740.375,229.044 755.316,229.044L768.523,229.044L768.523,270.065L749.713,270.065C734.639,270.065 722.499,274.701 713.294,283.972C704.089,293.244 699.487,306.351 699.487,323.293L699.487,448.158L654.463,448.158Z" style="fill:#35312e;fill-rule:nonzero;"/>
            <path d="M791.335,528.2L791.335,231.645L834.357,231.645L834.357,276.469L829.355,266.263C837.226,253.99 847.831,244.352 861.171,237.348C874.512,230.344 889.786,226.843 906.995,226.843C927.539,226.843 945.982,231.812 962.324,241.75C978.666,251.689 991.606,265.163 1001.14,282.172C1010.68,299.18 1015.45,318.424 1015.45,339.902C1015.45,361.113 1010.72,380.289 1001.25,397.432C991.773,414.574 978.866,428.114 962.524,438.053C946.182,447.991 927.606,452.961 906.795,452.961C890.12,452.961 874.912,449.492 861.171,442.555C847.431,435.618 836.759,425.613 829.155,412.54L836.358,404.135L836.358,528.2L791.335,528.2ZM902.393,410.939C915.2,410.939 926.572,407.87 936.511,401.734C946.449,395.597 954.253,387.16 959.923,376.421C965.593,365.682 968.427,353.509 968.427,339.902C968.427,326.161 965.593,313.988 959.923,303.383C954.253,292.777 946.449,284.373 936.511,278.169C926.572,271.966 915.2,268.865 902.393,268.865C889.853,268.865 878.58,271.933 868.575,278.069C858.57,284.206 850.699,292.644 844.963,303.383C839.227,314.122 836.358,326.295 836.358,339.902C836.358,353.509 839.227,365.682 844.963,376.421C850.699,387.16 858.57,395.597 868.575,401.734C878.58,407.87 889.853,410.939 902.393,410.939Z" style="fill:#35312e;fill-rule:nonzero;"/>
            <path d="M1055.87,448.158L1055.87,150.003L1252.18,150.003L1252.18,192.024L1102.9,192.024L1102.9,277.669L1244.17,277.669L1244.17,319.691L1102.9,319.691L1102.9,406.136L1252.18,406.136L1252.18,448.158L1055.87,448.158Z" style="fill:#35312e;fill-rule:nonzero;"/>
            <rect x="1283.79" y="145.2" width="45.024" height="302.958" style="fill:#35312e;fill-rule:nonzero;"/>
            <rect x="1373.64" y="145.2" width="45.024" height="302.958" style="fill:#35312e;fill-rule:nonzero;"/>
            <path d="M1564.94,452.961C1543.33,452.961 1524.22,447.958 1507.61,437.953C1491,427.948 1478.03,414.341 1468.69,397.132C1459.35,379.923 1454.68,360.646 1454.68,339.301C1454.68,317.557 1459.38,298.247 1468.79,281.371C1478.19,264.496 1490.93,251.189 1507.01,241.45C1523.08,231.712 1541.19,226.843 1561.34,226.843C1577.75,226.843 1592.32,229.644 1605.06,235.247C1617.8,240.85 1628.61,248.554 1637.48,258.359C1646.35,268.164 1653.12,279.337 1657.79,291.877C1662.46,304.416 1664.79,317.69 1664.79,331.697C1664.79,335.166 1664.62,338.768 1664.29,342.503C1663.96,346.238 1663.39,349.707 1662.59,352.908L1490.1,352.908L1490.1,316.89L1636.98,316.89L1615.57,333.298C1618.1,320.225 1617.2,308.552 1612.86,298.28C1608.53,288.008 1601.86,279.87 1592.85,273.867C1583.85,267.864 1573.34,264.862 1561.34,264.862C1549.46,264.862 1538.83,267.864 1529.42,273.867C1520.02,279.87 1512.78,288.441 1507.71,299.581C1502.64,310.72 1500.64,324.093 1501.71,339.702C1500.51,354.376 1502.61,367.216 1508.01,378.222C1513.41,389.227 1521.15,397.765 1531.22,403.835C1541.29,409.905 1552.67,412.94 1565.34,412.94C1578.55,412.94 1589.72,410.005 1598.86,404.135C1608,398.265 1615.3,390.662 1620.77,381.323L1657.59,399.533C1653.32,409.671 1646.68,418.776 1637.68,426.847C1628.67,434.918 1618,441.288 1605.66,445.957C1593.32,450.626 1579.75,452.961 1564.94,452.961Z" style="fill:#35312e;fill-rule:nonzero;"/>
        </g>
    </g>
</svg>
