<?xml version="1.0" encoding="UTF-8" standalone="no"?><!DOCTYPE svg PUBLIC "-//W3C//DTD SVG 1.1//EN" "http://www.w3.org/Graphics/SVG/1.1/DTD/svg11.dtd"><svg width="100%" height="100%" viewBox="0 0 1440 600" version="1.1" xmlns="http://www.w3.org/2000/svg" xmlns:xlink="http://www.w3.org/1999/xlink" xml:space="preserve" xmlns:serif="http://www.serif.com/" style="fill-rule:evenodd;clip-rule:evenodd;stroke-linejoin:round;stroke-miterlimit:2;"><rect id="HarpElle_Primary_Dark" x="-0" y="0" width="1440" height="600" style="fill:#f7f5f2;"/><clipPath id="_clip1"><rect x="-0" y="0" width="1440" height="600"/></clipPath><g clip-path="url(#_clip1)"><g id="Background"><rect id="Background-rect--Dark-" serif:id="Background rect (Dark)" x="-0" y="-0" width="1440" height="600" style="fill:#35312e;"/></g><g id="Logo"><g id="Wordmark"><g id="Wordmark---Light" serif:id="Wordmark - Light"><path d="M500,377.103l-0,-155.7l24.557,0l-0,68.654l72.102,0l-0,-68.654l24.557,0l-0,155.7l-24.557,-0l-0,-65.102l-72.102,0l-0,65.102l-24.557,-0Z" style="fill:#f7f5f2;fill-rule:nonzero;"/><path d="M680.778,379.61c-7.663,0 -14.385,-1.341 -20.167,-4.023c-5.783,-2.682 -10.276,-6.444 -13.48,-11.285c-3.205,-4.842 -4.807,-10.502 -4.807,-16.981c-0,-6.13 1.358,-11.634 4.075,-16.51c2.717,-4.877 6.914,-8.987 12.592,-12.331c5.677,-3.344 12.835,-5.712 21.474,-7.105l39.395,-6.479l-0,18.6l-34.693,5.956c-6.27,1.115 -10.885,3.118 -13.846,6.009c-2.96,2.891 -4.441,6.566 -4.441,11.024c0,4.25 1.655,7.733 4.964,10.45c3.309,2.717 7.506,4.075 12.592,4.075c6.409,0 12.017,-1.376 16.824,-4.127c4.806,-2.752 8.551,-6.479 11.233,-11.182c2.682,-4.702 4.023,-9.909 4.023,-15.622l-0,-29.05c-0,-5.503 -2.073,-10.031 -6.218,-13.584c-4.145,-3.553 -9.631,-5.329 -16.458,-5.329c-6.2,-0 -11.651,1.619 -16.353,4.859c-4.703,3.239 -8.168,7.471 -10.398,12.696l-19.645,-9.823c2.16,-5.573 5.591,-10.484 10.293,-14.734c4.702,-4.249 10.223,-7.576 16.563,-9.979c6.339,-2.403 13.096,-3.605 20.272,-3.605c8.917,-0 16.806,1.672 23.668,5.016c6.862,3.344 12.209,7.976 16.04,13.898c3.832,5.921 5.748,12.783 5.748,20.585l-0,76.074l-22.467,-0l-0,-20.377l4.702,0.522c-2.647,4.598 -6.008,8.569 -10.084,11.913c-4.075,3.344 -8.742,5.921 -14.002,7.733c-5.26,1.811 -11.059,2.716 -17.399,2.716Z" style="fill:#f7f5f2;fill-rule:nonzero;"/><path d="M763.435,377.103l-0,-113.065l22.466,-0l0,22.884l-2.09,-3.343c2.578,-7.455 6.653,-12.801 12.227,-16.041c5.573,-3.239 12.26,-4.859 20.063,-4.859l6.897,0l-0,21.422l-9.823,0c-7.872,0 -14.212,2.421 -19.018,7.262c-4.807,4.842 -7.211,11.687 -7.211,20.534l0,65.206l-23.511,-0Z" style="fill:#f7f5f2;fill-rule:nonzero;"/><path d="M834.91,418.901l0,-154.863l22.467,-0l-0,23.407l-2.613,-5.329c4.111,-6.41 9.649,-11.443 16.615,-15.1c6.967,-3.657 14.943,-5.486 23.93,-5.486c10.728,-0 20.359,2.595 28.893,7.785c8.534,5.19 15.291,12.226 20.272,21.108c4.981,8.882 7.472,18.931 7.472,30.147c-0,11.077 -2.473,21.091 -7.419,30.043c-4.947,8.952 -11.687,16.023 -20.22,21.213c-8.534,5.189 -18.235,7.784 -29.103,7.784c-8.708,0 -16.649,-1.811 -23.825,-5.433c-7.175,-3.623 -12.748,-8.848 -16.719,-15.675l3.762,-4.389l-0,64.788l-23.512,0Zm57.995,-61.235c6.688,0 12.627,-1.602 17.817,-4.807c5.19,-3.204 9.265,-7.61 12.226,-13.218c2.961,-5.608 4.441,-11.965 4.441,-19.071c0,-7.175 -1.48,-13.532 -4.441,-19.07c-2.961,-5.539 -7.036,-9.928 -12.226,-13.167c-5.19,-3.239 -11.129,-4.859 -17.817,-4.859c-6.548,0 -12.435,1.602 -17.659,4.807c-5.225,3.204 -9.335,7.611 -12.331,13.219c-2.995,5.608 -4.493,11.964 -4.493,19.07c-0,7.106 1.498,13.463 4.493,19.071c2.996,5.608 7.106,10.014 12.331,13.218c5.224,3.205 11.111,4.807 17.659,4.807Z" style="fill:#f7f5f2;fill-rule:nonzero;"/><path d="M973.054,377.103l-0,-155.7l102.511,0l-0,21.945l-77.954,-0l-0,44.724l73.774,-0l-0,21.944l-73.774,0l-0,45.142l77.954,0l-0,21.945l-102.511,-0Z" style="fill:#f7f5f2;fill-rule:nonzero;"/><rect x="1092.08" y="218.895" width="23.512" height="158.207" style="fill:#f7f5f2;fill-rule:nonzero;"/><rect x="1138.99" y="218.895" width="23.512" height="158.207" style="fill:#f7f5f2;fill-rule:nonzero;"/><path d="M1238.89,379.61c-11.285,0 -21.265,-2.612 -29.938,-7.837c-8.673,-5.225 -15.448,-12.33 -20.324,-21.317c-4.877,-8.987 -7.315,-19.053 -7.315,-30.199c-0,-11.356 2.455,-21.439 7.367,-30.252c4.911,-8.812 11.564,-15.761 19.959,-20.847c8.394,-5.085 17.851,-7.628 28.37,-7.628c8.569,-0 16.18,1.463 22.833,4.389c6.653,2.926 12.295,6.949 16.928,12.069c4.633,5.12 8.168,10.955 10.606,17.503c2.439,6.549 3.658,13.48 3.658,20.795c-0,1.811 -0.087,3.692 -0.262,5.643c-0.174,1.95 -0.47,3.761 -0.888,5.433l-90.075,0l-0,-18.809l76.7,0l-11.181,8.569c1.323,-6.827 0.853,-12.923 -1.411,-18.287c-2.264,-5.364 -5.747,-9.614 -10.45,-12.749c-4.702,-3.134 -10.188,-4.702 -16.458,-4.702c-6.2,0 -11.756,1.568 -16.667,4.702c-4.911,3.135 -8.691,7.611 -11.338,13.428c-2.647,5.817 -3.692,12.801 -3.135,20.952c-0.627,7.663 0.471,14.368 3.292,20.115c2.821,5.747 6.862,10.206 12.122,13.376c5.259,3.169 11.198,4.754 17.816,4.754c6.897,0 12.731,-1.532 17.503,-4.598c4.772,-3.065 8.586,-7.036 11.443,-11.912l19.227,9.509c-2.229,5.294 -5.695,10.049 -10.398,14.264c-4.702,4.214 -10.275,7.541 -16.719,9.979c-6.444,2.438 -13.532,3.657 -21.265,3.657Z" style="fill:#f7f5f2;fill-rule:nonzero;"/></g></g><g id="Monogram"><g id="Monogram---Full-Color-Dark" serif:id="Monogram - Full Color Dark"><circle id="Circle" cx="300" cy="300" r="150" style="fill:#f7f5f2;"/><g id="HE"><rect x="330.032" y="345" width="52.532" height="30" style="fill:#9280a0;"/><rect x="330.032" y="285" width="52.532" height="30" style="fill:#9280a0;"/><rect x="330.032" y="225" width="52.532" height="30" style="fill:#9280a0;"/><rect x="300.032" y="225" width="29.976" height="150" style="fill:#35312e;"/><rect x="247.532" y="285" width="52.5" height="30" style="fill:#b89a8f;"/><rect x="217.532" y="225" width="29.976" height="150" style="fill:#35312e;"/></g></g></g></g></g></svg>